<?xml version="1.0" encoding="UTF-8" standalone="no"?>
<!DOCTYPE svg PUBLIC "-//W3C//DTD SVG 1.1//EN"
 "http://www.w3.org/Graphics/SVG/1.1/DTD/svg11.dtd">
<!-- Generated by graphviz version 2.43.0 (0)
 -->
<!-- Title: Frac5 Pages: 1 -->
<svg width="709pt" height="188pt"
 viewBox="0.00 0.00 708.74 188.00" xmlns="http://www.w3.org/2000/svg" xmlns:xlink="http://www.w3.org/1999/xlink">
<g id="graph0" class="graph" transform="scale(1 1) rotate(0) translate(4 184)">
<title>Frac5</title>
<polygon fill="white" stroke="transparent" points="-4,4 -4,-184 704.74,-184 704.74,4 -4,4"/>
<!-- P0 -->
<g id="node1" class="node">
<title>P0</title>
<ellipse fill="none" stroke="black" cx="345.25" cy="-162" rx="27" ry="18"/>
<text text-anchor="middle" x="345.25" y="-158.3" font-family="Times,serif" font-size="14.00">P0</text>
</g>
<!-- F0 -->
<g id="node2" class="node">
<title>F0</title>
<ellipse fill="none" stroke="black" cx="147.25" cy="-90" rx="27" ry="18"/>
<text text-anchor="middle" x="147.25" y="-86.3" font-family="Times,serif" font-size="14.00">F0</text>
</g>
<!-- P0&#45;&gt;F0 -->
<g id="edge1" class="edge">
<title>P0&#45;&gt;F0</title>
<path fill="none" stroke="black" d="M321.76,-152.7C286.63,-140.28 220.27,-116.81 180.27,-102.68"/>
<polygon fill="black" stroke="black" points="181.3,-99.33 170.71,-99.29 178.97,-105.93 181.3,-99.33"/>
</g>
<!-- G0 -->
<g id="node3" class="node">
<title>G0</title>
<ellipse fill="none" stroke="black" cx="345.25" cy="-90" rx="27" ry="18"/>
<text text-anchor="middle" x="345.25" y="-86.3" font-family="Times,serif" font-size="14.00">G0</text>
</g>
<!-- P0&#45;&gt;G0 -->
<g id="edge2" class="edge">
<title>P0&#45;&gt;G0</title>
<path fill="none" stroke="black" d="M345.25,-143.7C345.25,-135.98 345.25,-126.71 345.25,-118.11"/>
<polygon fill="black" stroke="black" points="348.75,-118.1 345.25,-108.1 341.75,-118.1 348.75,-118.1"/>
</g>
<!-- H0 -->
<g id="node4" class="node">
<title>H0</title>
<ellipse fill="none" stroke="black" cx="546.25" cy="-90" rx="27" ry="18"/>
<text text-anchor="middle" x="546.25" y="-86.3" font-family="Times,serif" font-size="14.00">H0</text>
</g>
<!-- P0&#45;&gt;H0 -->
<g id="edge3" class="edge">
<title>P0&#45;&gt;H0</title>
<path fill="none" stroke="black" d="M368.7,-152.83C404.48,-140.37 472.82,-116.57 513.49,-102.41"/>
<polygon fill="black" stroke="black" points="514.65,-105.71 522.95,-99.11 512.35,-99.1 514.65,-105.71"/>
</g>
<!-- FF1 -->
<g id="node5" class="node">
<title>FF1</title>
<ellipse fill="none" stroke="black" cx="29.25" cy="-18" rx="29.5" ry="18"/>
<text text-anchor="middle" x="29.25" y="-14.3" font-family="Times,serif" font-size="14.00">FF1</text>
</g>
<!-- F0&#45;&gt;FF1 -->
<g id="edge4" class="edge">
<title>F0&#45;&gt;FF1</title>
<path fill="none" stroke="black" d="M127.76,-77.44C108.86,-66.23 79.95,-49.08 58.32,-36.25"/>
<polygon fill="black" stroke="black" points="59.94,-33.14 49.55,-31.05 56.37,-39.16 59.94,-33.14"/>
</g>
<!-- FG1 -->
<g id="node6" class="node">
<title>FG1</title>
<ellipse fill="none" stroke="black" cx="107.25" cy="-18" rx="30.59" ry="18"/>
<text text-anchor="middle" x="107.25" y="-14.3" font-family="Times,serif" font-size="14.00">FG1</text>
</g>
<!-- F0&#45;&gt;FG1 -->
<g id="edge5" class="edge">
<title>F0&#45;&gt;FG1</title>
<path fill="none" stroke="black" d="M137.97,-72.76C133.19,-64.4 127.26,-54.02 121.88,-44.61"/>
<polygon fill="black" stroke="black" points="124.75,-42.58 116.75,-35.63 118.67,-46.05 124.75,-42.58"/>
</g>
<!-- FH1 -->
<g id="node7" class="node">
<title>FH1</title>
<ellipse fill="none" stroke="black" cx="186.25" cy="-18" rx="30.59" ry="18"/>
<text text-anchor="middle" x="186.25" y="-14.3" font-family="Times,serif" font-size="14.00">FH1</text>
</g>
<!-- F0&#45;&gt;FH1 -->
<g id="edge6" class="edge">
<title>F0&#45;&gt;FH1</title>
<path fill="none" stroke="black" d="M156.29,-72.76C160.95,-64.4 166.74,-54.02 171.98,-44.61"/>
<polygon fill="black" stroke="black" points="175.17,-46.07 176.98,-35.63 169.06,-42.67 175.17,-46.07"/>
</g>
<!-- GF1 -->
<g id="node8" class="node">
<title>GF1</title>
<ellipse fill="none" stroke="black" cx="265.25" cy="-18" rx="30.59" ry="18"/>
<text text-anchor="middle" x="265.25" y="-14.3" font-family="Times,serif" font-size="14.00">GF1</text>
</g>
<!-- G0&#45;&gt;GF1 -->
<g id="edge7" class="edge">
<title>G0&#45;&gt;GF1</title>
<path fill="none" stroke="black" d="M329.44,-75.17C317.98,-65.14 302.27,-51.39 289.26,-40.01"/>
<polygon fill="black" stroke="black" points="291.4,-37.23 281.57,-33.28 286.79,-42.5 291.4,-37.23"/>
</g>
<!-- GG1 -->
<g id="node9" class="node">
<title>GG1</title>
<ellipse fill="none" stroke="black" cx="345.25" cy="-18" rx="31.4" ry="18"/>
<text text-anchor="middle" x="345.25" y="-14.3" font-family="Times,serif" font-size="14.00">GG1</text>
</g>
<!-- G0&#45;&gt;GG1 -->
<g id="edge8" class="edge">
<title>G0&#45;&gt;GG1</title>
<path fill="none" stroke="black" d="M345.25,-71.7C345.25,-63.98 345.25,-54.71 345.25,-46.11"/>
<polygon fill="black" stroke="black" points="348.75,-46.1 345.25,-36.1 341.75,-46.1 348.75,-46.1"/>
</g>
<!-- GH1 -->
<g id="node10" class="node">
<title>GH1</title>
<ellipse fill="none" stroke="black" cx="426.25" cy="-18" rx="31.7" ry="18"/>
<text text-anchor="middle" x="426.25" y="-14.3" font-family="Times,serif" font-size="14.00">GH1</text>
</g>
<!-- G0&#45;&gt;GH1 -->
<g id="edge9" class="edge">
<title>G0&#45;&gt;GH1</title>
<path fill="none" stroke="black" d="M361.25,-75.17C372.78,-65.21 388.56,-51.57 401.68,-40.23"/>
<polygon fill="black" stroke="black" points="404.16,-42.71 409.44,-33.52 399.59,-37.41 404.16,-42.71"/>
</g>
<!-- HF1 -->
<g id="node11" class="node">
<title>HF1</title>
<ellipse fill="none" stroke="black" cx="506.25" cy="-18" rx="30.59" ry="18"/>
<text text-anchor="middle" x="506.25" y="-14.3" font-family="Times,serif" font-size="14.00">HF1</text>
</g>
<!-- H0&#45;&gt;HF1 -->
<g id="edge10" class="edge">
<title>H0&#45;&gt;HF1</title>
<path fill="none" stroke="black" d="M536.97,-72.76C532.19,-64.4 526.26,-54.02 520.88,-44.61"/>
<polygon fill="black" stroke="black" points="523.75,-42.58 515.75,-35.63 517.67,-46.05 523.75,-42.58"/>
</g>
<!-- HG1 -->
<g id="node12" class="node">
<title>HG1</title>
<ellipse fill="none" stroke="black" cx="586.25" cy="-18" rx="31.7" ry="18"/>
<text text-anchor="middle" x="586.25" y="-14.3" font-family="Times,serif" font-size="14.00">HG1</text>
</g>
<!-- H0&#45;&gt;HG1 -->
<g id="edge11" class="edge">
<title>H0&#45;&gt;HG1</title>
<path fill="none" stroke="black" d="M555.52,-72.76C560.3,-64.4 566.24,-54.02 571.62,-44.61"/>
<polygon fill="black" stroke="black" points="574.82,-46.05 576.74,-35.63 568.74,-42.58 574.82,-46.05"/>
</g>
<!-- HH1 -->
<g id="node13" class="node">
<title>HH1</title>
<ellipse fill="none" stroke="black" cx="668.25" cy="-18" rx="32.49" ry="18"/>
<text text-anchor="middle" x="668.25" y="-14.3" font-family="Times,serif" font-size="14.00">HH1</text>
</g>
<!-- H0&#45;&gt;HH1 -->
<g id="edge12" class="edge">
<title>H0&#45;&gt;HH1</title>
<path fill="none" stroke="black" d="M566.12,-77.6C585.47,-66.5 615.14,-49.47 637.53,-36.63"/>
<polygon fill="black" stroke="black" points="639.39,-39.59 646.32,-31.58 635.91,-33.52 639.39,-39.59"/>
</g>
</g>
</svg>
